<?xml version="1.0" encoding="utf-8"?>
<!-- Generator: Adobe Illustrator 19.2.1, SVG Export Plug-In . SVG Version: 6.00 Build 0)  -->
<svg version="1.1" id="Layer_1" xmlns="http://www.w3.org/2000/svg" xmlns:xlink="http://www.w3.org/1999/xlink" x="0px" y="0px"
	 viewBox="0 0 125 123" style="enable-background:new 0 0 125 123;" xml:space="preserve">
<style type="text/css">
	.st0{fill:#F17565;}
	.st1{fill:#FDBA63;}
	.st2{fill:#FBAB18;}
	.st3{fill:#0081A9;}
	.st4{fill:#FFE08C;}
	.st5{fill:#6B461F;}
	.st6{fill:#84582B;}
	.st7{fill:#9CC638;}
	.st8{fill:#7B5126;}
</style>
<g id="armleft">
	<g>
		<g>
			<path class="st0" d="M114.1,30.7c-0.4,0.2-0.9,0.1-1.4,0c-0.1,0-0.2-0.1-0.3-0.1c0,0,0,0-0.1-0.1c-0.4-0.3-0.8-0.8-1.2-1.2
				l-0.1-0.6c-0.3-0.4-0.3-0.9-0.2-1.3c0-0.1,0-0.1,0-0.3c0-0.1,0.2-0.3,0.2-0.4c0.6-0.9,1.6-1.5,2.5-2.1c0.7-0.2,1.5-0.4,2.2-0.8
				c0,0.4,0.1,0.8,0.1,1.2c0.1,1.6-0.1,3.3-1,4.7C114.7,30.1,114.4,30.5,114.1,30.7z"/>
		</g>
		<g>
			<path class="st1" d="M84,70.3l9.8-13.5c0.2-0.3,0.3-0.5,0.4-0.7l11.8-26.2c0.7-1.6,2.3-2.6,3.8-2.3l5.5,0.8c1.1,0.2,2,1,2.3,2
				l0.3,0.8c0.3,1.2,0.1,2.6-0.8,3.5L98.2,58.4c-0.2,0.1-0.2,0.3-0.3,0.5l-8.5,15.1c-0.8,1.3-2,2.1-3.3,2l-1.3,0
				c-0.3,0-0.6-0.2-0.7-0.5l-0.7-1.6C82.9,72.9,83.1,71.4,84,70.3z"/>
			<path class="st2" d="M117.1,34.6c0.8-1.1,1.1-2.4,0.8-3.5l-0.3-0.8c0-0.1-0.1-0.2-0.2-0.4c-2,3-4.2,5.7-6.7,8.4
				c-3.8,4-8.2,7.4-12.9,9.5L94.2,56c0,0,0,0-0.1,0.1c2,0.2,4,0.1,6,0L117.1,34.6z"/>
			<path class="st3" d="M100.2,56.1c-2,0.1-4.1,0.1-6,0c-0.1,0.2-0.3,0.5-0.4,0.7L91.4,60c1.8,0.4,3.7,0.7,5.6,0.6l0.8-1.5
				c0.1-0.2,0.2-0.3,0.3-0.5L100.2,56.1z"/>
			<path class="st4" d="M108.3,46l-2,2.5c-0.6-1-0.4-2.8,0-4.3c-0.4,0-0.6,0-0.9-0.2c-0.7-0.2-1.2-1.2-0.8-2.1
				c0.8-1.6,1.6-3.1,2.3-4.7c-1.5,1.3-3,2.9-4.5,4.2c-0.7,0.6-1.4,1-2.1,1.1l1.7-3.8c0.7-0.6,1.2-1.2,1.9-1.7c1.6-1.6,3.3-3,5.4-3.9
				c0.9-0.3,1.6,0.7,1.3,1.5c-0.5,1.4-1.2,2.8-1.9,4.2c-0.1,0.2-0.8,1.5-1.3,2.4c0.4,0,0.5,0,0.8,0.1c0.7,0.2,0.8,0.9,0.6,1.5
				C108.9,43.3,108.3,44.9,108.3,46z"/>
		</g>
	</g>
	<g>
		<g>
			<path class="st5" d="M62.7,83.9c-0.7-0.2-1.2-0.8-1.5-1.4L46.7,51.6c-0.6-1.3,0-2.9,1.3-3.6c1.3-0.6,2.9,0,3.6,1.3l13.5,28.7
				l23-7.7c1.4-0.4,2.9,0.3,3.4,1.7c0.4,1.4-0.3,2.9-1.7,3.4L64.6,84C63.8,84.1,63.2,84.1,62.7,83.9z"/>
		</g>
		<g>
			<path class="st2" d="M54,68c-1-0.4-1.9-1.1-2.4-2.2l-6.3-13.6c-1-2.2-0.1-4.7,2.1-5.6c2.2-1,4.7-0.1,5.6,2.1l6.3,13.6
				c1,2.2,0.1,4.7-2.1,5.6C56.2,68.3,55,68.3,54,68z"/>
		</g>
	</g>
	<g>
		<path class="st6" d="M89.4,75.6l-3.2,0.5c-2.4,0.4-4.6-1.1-5-3.4l0,0c-0.4-2.4,1.1-4.6,3.4-5l3.2-0.5c2.4-0.4,4.6,1.1,5,3.4l0,0
			C93.3,72.9,91.8,75.2,89.4,75.6z"/>
	</g>
</g>
<g>
	<g>
		<polygon class="st1" points="64.6,76.1 49.8,77.4 41.4,44.4 67.9,42.1 		"/>
	</g>
	<g>
		<polygon class="st2" points="67.9,42.1 65.1,69.8 42.3,48.1 41.4,44.4 		"/>
	</g>
	<g>
		<g>
			<polygon class="st7" points="66.4,68.2 66.3,76.6 50.1,79.7 48,69.5 			"/>
		</g>
	</g>
	<g>
		<ellipse transform="matrix(0.6428 -0.766 0.766 0.6428 -7.5083 53.1341)" class="st5" cx="53.2" cy="34.6" rx="15.4" ry="15.4"/>
		<path class="st8" d="M63.1,22.8c6.5,5.5,7.4,15.2,1.9,21.7c-3.9,4.6-9.7,6.3-15,5.1c3.1-0.8,6-2.4,8.1-5
			c5.4-6.4,4.6-16.2-1.9-21.7c-2-1.7-4.2-2.8-6.5-3.2C54.2,18.6,59.1,19.5,63.1,22.8z"/>
	</g>
</g>
<g id="armright">
	<g>
		<g>
			<path class="st5" d="M52.4,49.6c0.2-0.7,0.8-1.2,1.4-1.5l28.1-12.8L65.9,22.1c-0.4-1.4,0.3-3,1.7-3.3c1.4-0.4,3,0.3,3.3,1.7
				l17.8,15.4c0.4,1.3-0.2,2.7-1.5,3.2L56,52.7c-1.4,0.6-3,0-3.5-1.4C52.1,50.9,52.2,50.2,52.4,49.6z"/>
		</g>
		<g>
			<path class="st1" d="M50.9,49.1c0.4-1,1.2-2,2.3-2.5l13.7-6c2.1-0.9,4.7,0,5.6,2.1s0,4.7-2.1,5.6l-13.7,6.1
				c-2.1,0.9-4.7,0-5.6-2.1C50.6,51.2,50.6,50,50.9,49.1z"/>
		</g>
	</g>
	<g>
		<path class="st6" d="M63.1,26l-0.5-3.2c-0.4-2.4,1.1-4.6,3.4-5l0,0c2.4-0.4,4.6,1.1,5,3.4l0.5,3.2c0.4,2.4-1.1,4.6-3.4,5l0,0
			C65.8,29.8,63.5,28.3,63.1,26z"/>
	</g>
</g>
<g id="leftleg">
	<g>
		<g>
			<path class="st5" d="M85.9,120.6c-0.3,0-0.7-0.1-1-0.2c-1.4-0.6-2-2.1-1.4-3.5L81.3,93L52.6,77.2c-1.3-0.7-1.7-2.4-1-3.6
				c0.7-1.3,2.4-1.7,3.6-1l29.7,16.9c1.2,0.7,1.6,1.7,1.4,3.5l2,25.9C88,120,87,120.6,85.9,120.6z"/>
		</g>
		<g>
			<g>
				<path class="st7" d="M66.9,86.5c-0.7,0-1.4-0.2-2.1-0.6l-13-7.4c-2-1.2-2.8-3.8-1.6-5.8s3.8-2.8,5.8-1.6l13,7.4
					c2,1.2,2.8,3.8,1.6,5.8C69.9,85.8,68.4,86.5,66.9,86.5z"/>
			</g>
		</g>
	</g>
	<g>
		<path class="st1" d="M87.5,114.2l3.2,0.2c2.4,0.1,4.2,2.3,4,4.6l0,0c-0.1,2.4-2.3,4.2-4.6,4l-3.2-0.2c-2.4-0.1-4.2-2.3-4-4.6l0,0
			C83.1,115.9,85.1,114.1,87.5,114.2z"/>
	</g>
</g>
<g id="rightleg">
	<g>
		<g>
			<path class="st5" d="M63.4,106.5c-0.3,0.5-0.8,0.9-1.4,1.2L37.3,117c-1.3,0.5-2.9-0.2-3.5-1.6c-0.5-1.3,0.2-2.9,1.6-3.5l22.7-8.6
				l-7.7-30.8c-0.3-1.5,0.5-2.8,2-3.2c1.5-0.3,2.8,0.5,3.2,2l8.1,33.1C63.9,105.2,63.8,105.9,63.4,106.5z"/>
		</g>
		<g>
			<g>
				<path class="st7" d="M60.1,88.7c-0.5,1-1.4,1.7-2.7,2c-2.3,0.5-4.6-0.8-5.1-3.1l-3.7-14.5c-0.5-2.3,0.8-4.6,3.1-5.1
					c2.3-0.5,4.6,0.8,5.1,3.1l3.7,14.4C60.9,86.6,60.6,87.7,60.1,88.7z"/>
			</g>
		</g>
	</g>
	<g>
		<path class="st1" d="M40.5,115.9l0,3.2c0,2.4-1.9,4.3-4.2,4.4l0,0c-2.4,0-4.3-1.9-4.4-4.2l0-3.2c0-2.4,1.9-4.3,4.2-4.4l0,0
			C38.6,111.6,40.4,113.4,40.5,115.9z"/>
	</g>
</g>
</svg>
