<?xml version="1.0" encoding="utf-8"?>
<!-- Generator: Adobe Illustrator 19.2.1, SVG Export Plug-In . SVG Version: 6.00 Build 0)  -->
<svg version="1.1" id="Layer_1" xmlns="http://www.w3.org/2000/svg" xmlns:xlink="http://www.w3.org/1999/xlink" x="0px" y="0px"
	 viewBox="0 0 125 125" style="enable-background:new 0 0 125 125;" xml:space="preserve">
<style type="text/css">
	.st0{fill:#EF5D5F;}
	.st1{fill:#F17565;}
	.st2{fill:#FDBA63;}
	.st3{fill:#FBAB18;}
	.st4{fill:#0081A9;}
	.st5{fill:#FFE08C;}
	.st6{fill:#6B461F;}
	.st7{fill:#84582B;}
	.st8{fill:#9CC638;}
	.st9{fill:#7B5126;}
</style>
<g id="armleft">
	<g>
		<path class="st0" d="M107,19c-0.4-0.7-0.5-1.5-0.3-2.4c0.2-1.3,0.8-2.4,1.8-3.3c2.6-2.3,7.1-2,9.3-4.6c1.3-1.5,1.6-3.7,1.7-5.8
			c0.2,3.4,0.2,6.8-0.5,10c-0.7,3.3-2.2,6.5-4.7,8.7c-0.7,0.6-1.4,1.1-2.2,1.2c-1,0.2-2-0.2-2.8-0.9c-0.8-0.6-1.4-1.4-2-2.2L107,19z
			"/>
	</g>
	<g>
		<path class="st1" d="M112.5,19.9c-0.4,0.2-0.9,0.1-1.4,0c-0.1,0-0.2-0.1-0.3-0.1c0,0,0,0-0.1-0.1c-0.4-0.3-0.8-0.8-1.2-1.2
			l-0.1-0.6c-0.3-0.4-0.4-0.9-0.2-1.3c0-0.1,0-0.1,0-0.3c0-0.1,0.2-0.3,0.2-0.4c0.6-0.9,1.6-1.5,2.4-2.1c0.7-0.2,1.5-0.4,2.2-0.8
			c0,0.4,0.1,0.8,0.1,1.2c0.2,1.6-0.1,3.3-1,4.7C113.1,19.3,112.8,19.7,112.5,19.9z"/>
	</g>
	<g>
		<path class="st2" d="M82.7,59.6l9.8-13.5c0.2-0.3,0.3-0.5,0.4-0.7l11.6-26.3c0.7-1.6,2.3-2.6,3.8-2.3l5.5,0.7c1.1,0.2,2,0.9,2.3,2
			l0.3,0.8c0.3,1.2,0.1,2.6-0.8,3.6l-18.8,24c-0.2,0.1-0.2,0.3-0.3,0.5l-8.4,15.1c-0.7,1.3-2,2.1-3.3,2l-1.3,0
			c-0.3,0-0.6-0.2-0.7-0.5l-0.7-1.6C81.6,62.3,81.8,60.8,82.7,59.6z"/>
		<path class="st3" d="M115.6,23.8c0.8-1.1,1.1-2.4,0.8-3.6l-0.3-0.8c0-0.1-0.1-0.2-0.2-0.4c-2,3-4.2,5.8-6.6,8.4
			c-3.8,4-8.1,7.4-12.8,9.6l-3.6,8.2c0,0,0,0-0.1,0.1c2,0.2,4,0,6,0L115.6,23.8z"/>
		<path class="st4" d="M98.8,45.4c-2,0.1-4.1,0.2-6,0c-0.1,0.2-0.3,0.5-0.4,0.7L90,49.3c1.8,0.4,3.7,0.7,5.6,0.6l0.8-1.5
			c0.1-0.2,0.2-0.3,0.3-0.5L98.8,45.4z"/>
		<path class="st5" d="M106.8,35.2l-2,2.5c-0.6-1-0.4-2.8,0-4.3c-0.4,0-0.6,0-0.9-0.1c-0.7-0.2-1.2-1.2-0.8-2.1
			c0.8-1.6,1.5-3.1,2.3-4.7c-1.5,1.3-3,2.9-4.5,4.2c-0.7,0.6-1.4,1-2.1,1.1l1.7-3.8c0.7-0.6,1.2-1.2,1.9-1.8
			c1.6-1.6,3.3-3.1,5.4-3.9c0.9-0.4,1.6,0.7,1.3,1.5c-0.5,1.4-1.2,2.8-1.8,4.2c-0.1,0.2-0.8,1.5-1.3,2.4c0.4,0,0.5,0,0.8,0.1
			c0.7,0.2,0.9,0.8,0.7,1.5C107.3,32.5,106.8,34.1,106.8,35.2z"/>
	</g>
	<g>
		<g>
			<path class="st6" d="M60.7,69.6c-0.6-0.3-1.1-0.9-1.4-1.5L47.8,36c-0.5-1.3,0.2-2.9,1.6-3.4c1.3-0.5,2.9,0.2,3.4,1.6L63.7,64
				l23.6-5.6c1.5-0.3,2.8,0.6,3.3,2c0.3,1.5-0.6,2.8-2,3.3l-25.9,6.2C61.9,69.9,61.3,69.9,60.7,69.6z"/>
		</g>
		<g>
			<path class="st3" d="M53.5,53c-1-0.5-1.8-1.3-2.2-2.4l-5.1-14.1c-0.8-2.3,0.3-4.7,2.5-5.4c2.3-0.8,4.7,0.3,5.4,2.5l5.1,14.1
				c0.8,2.3-0.3,4.7-2.5,5.4C55.7,53.5,54.5,53.4,53.5,53z"/>
		</g>
	</g>
	<g>
		<path class="st7" d="M88.1,63.8L84.9,64c-2.4,0.2-4.5-1.5-4.7-3.9l0,0c-0.2-2.4,1.5-4.5,3.9-4.7l3.2-0.3c2.4-0.2,4.5,1.5,4.7,3.9
			l0,0C92.2,61.4,90.5,63.6,88.1,63.8z"/>
	</g>
</g>
<g>
	<g>
		<polygon class="st2" points="53.6,62 38.8,62 33.3,28.4 59.9,28.4 		"/>
	</g>
	<g>
		<polygon class="st3" points="59.9,28.4 54.7,55.7 33.9,32.1 33.3,28.4 		"/>
	</g>
	<g>
		<g>
			<polygon class="st8" points="56.1,54.3 55.3,62.6 38.9,64.3 37.7,53.9 			"/>
		</g>
	</g>
	<g>
		
			<ellipse transform="matrix(0.7071 -0.7071 0.7071 0.7071 -0.4369 38.2334)" class="st6" cx="45.9" cy="19.6" rx="15.4" ry="15.4"/>
		<path class="st9" d="M56.8,8.8c6,6,6,15.8,0,21.8c-4.2,4.2-10.3,5.4-15.4,3.8c3.2-0.5,6.2-1.9,8.6-4.3c5.9-5.9,6-15.8,0-21.8
			c-1.8-1.8-4-3.1-6.2-3.7C48.3,3.7,53.1,5.1,56.8,8.8z"/>
	</g>
</g>
<g id="armright">
	<g>
		<g>
			<path class="st6" d="M42.7,38.1c0.1,1.5-1.1,2.7-2.6,2.8L6,41.7c-1.3,0.1-2.5-0.9-2.7-2.3l-3.7-26.3c-0.3-1.4,0.8-2.8,2.3-3
				c1.4-0.3,2.8,0.8,3,2.3l3.4,24l31.8-0.7c0.7,0,1.4,0.3,1.9,0.8C42.4,37,42.8,37.6,42.7,38.1z"/>
		</g>
		<g>
			<path class="st2" d="M44.4,38.4c0.1,2.3-1.8,4.2-4.2,4.3l-15,0.3c-2.3,0.1-4.2-1.8-4.3-4.2c-0.1-2.3,1.8-4.2,4.2-4.3L40,34.2
				c1.2-0.1,2.3,0.5,3.1,1.3C43.8,36.2,44.3,37.2,44.4,38.4z"/>
		</g>
	</g>
	<g>
		<path class="st7" d="M5.9,20L5.9,20c-2.3,0.6-4.6-0.8-5.2-3.1l-0.8-3.1C-0.7,11.5,0.6,9.2,3,8.6l0,0C5.2,8,7.6,9.4,8.2,11.7
			L9,14.8C9.6,17.1,8.2,19.5,5.9,20z"/>
	</g>
</g>
<g id="rightleg">
	<g>
		<g>
			<path class="st6" d="M42.7,95.3c0,0.6,0.3,27.6-0.3,27.7l-3.4,0.2c-1.4,0.1-2.7-1-2.9-2.4c-0.1-1.4,1-2.7,2.4-2.9l-0.2-27.2
				L39.2,59c0.1-1.5,1.2-2.6,2.8-2.6c1.5,0.1,2.6,1.2,2.6,2.8l-1.8,34.1C42.8,94,42.7,94.7,42.7,95.3z"/>
		</g>
		<g>
			<g>
				<path class="st8" d="M44.3,77.1c-0.8,0.8-1.9,1.2-3.1,1.2c-2.3-0.1-4.2-2-4.1-4.4L37.5,59c0.1-2.3,2-4.2,4.4-4.1s4.2,2,4.1,4.4
					l-0.3,14.8C45.6,75.2,45.1,76.3,44.3,77.1z"/>
			</g>
		</g>
	</g>
	<g>
		<path class="st2" d="M35.9,116.4l3.2-0.2c2.4-0.2,4.4,1.6,4.7,3.9l0,0c0.2,2.4-1.6,4.4-3.9,4.7l-3.2,0.2c-2.4,0.2-4.4-1.6-4.7-3.9
			l0,0C31.7,118.6,33.4,116.7,35.9,116.4z"/>
	</g>
</g>
<g id="rightleg_1_">
	<g>
		<g>
			<path class="st6" d="M52.3,93.3l-1.8-34.1c0-1.6,1.1-2.7,2.6-2.8c1.6,0,2.7,1.1,2.8,2.6l0.9,31.7l-0.2,27.2
				c1.5,0.2,2.6,1.5,2.4,2.9c-0.2,1.5-1.5,2.6-2.9,2.4l-3.4-0.2c-0.6-0.1-0.4-27.1-0.3-27.7C52.3,94.7,52.3,94,52.3,93.3z"/>
		</g>
		<g>
			<g>
				<path class="st8" d="M49.5,74.1l-0.3-14.8c-0.1-2.3,1.8-4.3,4.1-4.4s4.3,1.8,4.4,4.1L58,73.9c0.1,2.3-1.8,4.3-4.1,4.4
					c-1.3,0-2.3-0.5-3.1-1.2C50,76.3,49.5,75.2,49.5,74.1z"/>
			</g>
		</g>
	</g>
	<g>
		<path class="st2" d="M63.1,121.1L63.1,121.1c-0.2,2.3-2.2,4.1-4.7,3.9l-3.2-0.2c-2.3-0.2-4.1-2.2-3.9-4.7l0,0
			c0.2-2.3,2.2-4.1,4.7-3.9l3.2,0.2C61.6,116.7,63.4,118.6,63.1,121.1z"/>
	</g>
</g>
</svg>
